<?xml version="1.0" encoding="UTF-8"?>
<svg width="38px" height="38px" viewBox="0 0 38 38" version="1.1" xmlns="http://www.w3.org/2000/svg" xmlns:xlink="http://www.w3.org/1999/xlink">
    <!-- Generator: Sketch 55.1 (78136) - https://sketchapp.com -->
    <title>Book Format Label / E-reader</title>
    <desc>Created with Sketch.</desc>
    <g id="Book-Format-Label-/-E-reader" stroke="none" stroke-width="1" fill="none" fill-rule="evenodd">
        <g id="Icon" transform="translate(0.000000, 4.000000)" fill-rule="nonzero" stroke="#000000" stroke-width="2">
            <path d="M36.2105731,32.0022753 L37,32.0022753 L37,7.051658 C35.7364989,5.9460945 34.3643592,4.98816664 32.8888889,4.176658 C30.2934788,2.74918243 27.4489925,1.80491105 24.4261831,1.33040028 C22.584629,1.04131911 20.8418435,0.947255884 19.3539095,1.02696664 C19.1984963,1.03529234 19.0725505,1.04440295 19,1.051658 L19,26.051658 C27.0835393,26.051658 32.9784405,28.1708064 36.2105731,32.0022753 Z" id="Combined-Shape-Copy" transform="translate(28.000000, 16.501138) scale(-1, 1) translate(-28.000000, -16.501138) "></path>
            <path d="M18.2105731,32.0022753 L19,32.0022753 L19,7.051658 C17.7364989,5.9460945 16.3643592,4.98816664 14.8888889,4.176658 C12.2934788,2.74918243 9.44899247,1.80491105 6.42618313,1.33040028 C4.584629,1.04131911 2.84184353,0.947255884 1.35390947,1.02696664 C1.19849631,1.03529234 1.0725505,1.04440295 1,1.051658 L1,26.051658 C9.08353931,26.051658 14.9784405,28.1708064 18.2105731,32.0022753 Z" id="Combined-Shape-Copy-2"></path>
        </g>
    </g>
</svg>