<?xml version="1.0" encoding="UTF-8"?>
<svg width="61px" height="61px" viewBox="0 0 61 61" version="1.1" xmlns="http://www.w3.org/2000/svg" xmlns:xlink="http://www.w3.org/1999/xlink">
    <!-- Generator: Sketch 55.1 (78136) - https://sketchapp.com -->
    <title>Preset / E-reader / Compact / Selected</title>
    <desc>Created with Sketch.</desc>
    <g id="Preset-/-E-reader-/-Compact-/-Selected" stroke="none" stroke-width="1" fill="none" fill-rule="evenodd">
        <rect id="Rectangle" stroke="#000000" stroke-width="2" fill="#FFFFFF" x="10" y="10" width="41" height="41" rx="6"></rect>
        <path d="M18,23.5 L43,23.5" id="Line-" stroke="#000000" stroke-linecap="square"></path>
        <path d="M18,18.5 L43,18.5" id="Line-" stroke="#000000" stroke-linecap="square"></path>
        <path d="M18,28.5 L43,28.5" id="Line" stroke="#000000" stroke-linecap="square"></path>
        <path d="M18,33.5 L43,33.5" id="Line" stroke="#000000" stroke-linecap="square"></path>
        <path d="M18,43.5 L43,43.5" id="Line" stroke="#000000" stroke-linecap="square"></path>
        <path d="M18,38.5 L43,38.5" id="Line" stroke="#000000" stroke-linecap="square"></path>
        <path d="M26,9 C24.9461381,18.0201407 17.7367815,25 9,25 L9,15 C9,11.6862915 11.6862915,9 15,9 L26,9 Z" id="Combined-Shape" stroke="#FFFFFF" stroke-width="2" fill="#FFFFFF"></path>
        <polygon id="Fill-3" fill="#000000" points="25.159079 0 9.81789492 16.1290679 1.84092104 7.74186413 0 9.67733016 9.81789492 20 27 1.93546603"></polygon>
    </g>
</svg>