<?xml version="1.0" encoding="UTF-8"?>
<svg width="43px" height="43px" viewBox="0 0 43 43" version="1.1" xmlns="http://www.w3.org/2000/svg" xmlns:xlink="http://www.w3.org/1999/xlink">
    <!-- Generator: Sketch 61 (89581) - https://sketch.com -->
    <title>error_icon</title>
    <desc>Created with Sketch.</desc>
    <g id="error_icon" stroke="none" stroke-width="1" fill="none" fill-rule="evenodd">
        <g id="Icon-/-Badge-/-List-/-Download-Error-/-Dark">
            <path d="M21.5,43 C9.62555,43 0,33.37445 0,21.5 C0,9.62555 9.62555,0 21.5,0 C33.37445,0 43,9.62555 43,21.5 C43,33.37445 33.37445,43 21.5,43 Z" id="Fill-1" fill="#181818"></path>
            <g id="Page-1" stroke-width="1" fill="#FFFFFF">
                <path d="M19.964255,24.57149 L18.429155,9.21404 L24.571705,9.21404 L23.036605,24.57149 L19.964255,24.57149 Z M21.499355,33.78639 C20.589905,33.78639 19.850305,33.50044 19.282705,32.93284 C18.712955,32.36524 18.429155,31.62349 18.429155,30.71404 C18.429155,29.80459 18.712955,29.06499 19.282705,28.49524 C19.850305,27.92764 20.589905,27.64384 21.499355,27.64384 C22.410955,27.64384 23.150555,27.92764 23.718155,28.49524 C24.287905,29.06499 24.571705,29.80459 24.571705,30.71404 C24.571705,31.62349 24.287905,32.36524 23.718155,32.93284 C23.150555,33.50044 22.410955,33.78639 21.499355,33.78639 L21.499355,33.78639 Z" id="Fill-3"></path>
            </g>
        </g>
    </g>
</svg>