<?xml version="1.0" encoding="UTF-8"?>
<svg width="61px" height="61px" viewBox="0 0 61 61" version="1.1" xmlns="http://www.w3.org/2000/svg" xmlns:xlink="http://www.w3.org/1999/xlink">
    <!-- Generator: Sketch 55.1 (78136) - https://sketchapp.com -->
    <title>Preset / E-reader / Low Vision / Selected</title>
    <desc>Created with Sketch.</desc>
    <g id="Preset-/-E-reader-/-Low-Vision-/-Selected" stroke="none" stroke-width="1" fill="none" fill-rule="evenodd">
        <rect id="Rectangle" stroke="#000000" stroke-width="2" fill="#FFFFFF" x="10" y="10" width="41" height="41" rx="6"></rect>
        <path d="M31,22 C25.5454545,22 20.8872727,25.3173333 19,30 C20.8872727,34.6826667 25.5454545,38 31,38 C36.4545455,38 41.1127273,34.6826667 43,30 C41.1127273,25.3173333 36.4545455,22 31,22 Z M31,36 C27.688,36 25,33.312 25,30 C25,26.688 27.688,24 31,24 C34.312,24 37,26.688 37,30 C37,33.312 34.312,36 31,36 Z M31,27 C29.34,27 28,28.34 28,30 C28,31.66 29.34,33 31,33 C32.66,33 34,31.66 34,30 C34,28.34 32.66,27 31,27 Z" id="Shape" fill="#000000" fill-rule="nonzero"></path>
        <path d="M26,9 C24.9461381,18.0201407 17.7367815,25 9,25 L9,15 C9,11.6862915 11.6862915,9 15,9 L26,9 Z" id="Combined-Shape" stroke="#FFFFFF" stroke-width="2" fill="#FFFFFF"></path>
        <polygon id="Fill-3" fill="#000000" points="25.159079 0 9.81789492 16.1290679 1.84092104 7.74186413 0 9.67733016 9.81789492 20 27 1.93546603"></polygon>
    </g>
</svg>