<?xml version="1.0" encoding="UTF-8" standalone="no"?>
<svg
   xmlns:dc="http://purl.org/dc/elements/1.1/"
   xmlns:cc="http://creativecommons.org/ns#"
   xmlns:rdf="http://www.w3.org/1999/02/22-rdf-syntax-ns#"
   xmlns:svg="http://www.w3.org/2000/svg"
   xmlns="http://www.w3.org/2000/svg"
   xmlns:sodipodi="http://sodipodi.sourceforge.net/DTD/sodipodi-0.dtd"
   xmlns:inkscape="http://www.inkscape.org/namespaces/inkscape"
   width="112px"
   height="112px"
   viewBox="0 0 112 112"
   id="svg3013"
   sodipodi:docname=" Update.svg">
  <path
     inkscape:connector-curvature="0"
     d="m 31.42373,27 c -1.65,0 -3,1.35 -3,3 l 0,46 c 0,1.65 1.35,3 3,3 l 5,0 26.05078,0 c 2.31,3.61 6.34922,6 10.94922,6 7.17,0 13,-5.83 13,-13 0,-4.6 -2.39,-8.639219 -6,-10.949219 l 0,-22.390625 c 0,-1.34 -0.52094,-2.591015 -1.46094,-3.541015 l -6.6582,-6.658203 C 71.35459,27.520938 70.10357,27 68.76357,27 l -0.33984,0 -32,0 -5,0 z m 0,2 5,0 0,15 c 0,1.654 1.346,3 3,3 l 26,0 c 1.654,0 3,-1.346 3,-3 l 0,-15 0.33984,0 c 0.79,0 1.5711,0.32086 2.1211,0.88086 l 6.6582,6.658202 c 0.57,0.560001 0.88086,1.321094 0.88086,2.121094 l 0,21.339844 c -1.54,-0.64 -3.23,-1 -5,-1 -0.34,0 -0.67,0.01078 -1,0.05078 l 0,-5.05078 c 0,-1.65 -1.35,-3 -3,-3 l -30,0 c -1.65,0 -3,1.35 -3,3 l 0,23 -5,0 c -0.55,0 -1,-0.45 -1,-1 l 0,-46 c 0,-0.55 0.45,-1 1,-1 z m 7,0 28,0 0,15 c 0,0.551 -0.449,1 -1,1 l -26,0 c -0.551,0 -1,-0.449 -1,-1 l 0,-15 z m 23,2 c -1.654,0 -3,1.346 -3,3 l 0,6 c 0,1.654 1.346,3 3,3 1.654,0 3,-1.346 3,-3 l 0,-6 c 0,-1.654 -1.346,-3 -3,-3 z m 0,2 c 0.551,0 1,0.449 1,1 l 0,6 c 0,0.551 -0.449,1 -1,1 -0.551,0 -1,-0.449 -1,-1 l 0,-6 c 0,-0.551 0.449,-1 1,-1 z m -22,20 30,0 c 0.55,0 1,0.45 1,1 l 0,5.349609 c -5.73,1.36 -10,6.510391 -10,12.650391 0,1.77 0.36,3.46 1,5 l -23,0 0,-23 c 0,-0.55 0.45,-1 1,-1 z m 4,4 c -0.552,0 -1,0.448 -1,1 0,0.552 0.448,1 1,1 l 14,0 c 0.552,0 1,-0.448 1,-1 0,-0.552 -0.448,-1 -1,-1 l -14,0 z m 18,0 c -0.552,0 -1,0.448 -1,1 0,0.552 0.448,1 1,1 l 4,0 c 0.552,0 1,-0.448 1,-1 0,-0.552 -0.448,-1 -1,-1 l -4,0 z m -18,4 c -0.552,0 -1,0.448 -1,1 0,0.552 0.448,1 1,1 l 18,0 c 0.552,0 1,-0.448 1,-1 0,-0.552 -0.448,-1 -1,-1 l -18,0 z m 30,0 c 1.8,0 3.5,0.429219 5,1.199219 0.71,0.36 1.38,0.800547 2,1.310547 2.44,2.02 4,5.080234 4,8.490234 0,6.07 -4.93,11 -11,11 -3.41,0 -6.47024,-1.56 -8.49024,-4 -0.51,-0.62 -0.95054,-1.29 -1.31054,-2 -0.77,-1.5 -1.19922,-3.2 -1.19922,-5 0,-5.03 3.39,-9.280078 8,-10.580078 0.65,-0.19 1.32,-0.309141 2,-0.369141 0.33,-0.03 0.66,-0.05078 1,-0.05078 z m 6,6 c -0.25575,0 -0.51153,0.09747 -0.70703,0.292969 l -7.29297,7.292969 -3.29297,-3.292969 c -0.391,-0.391 -1.02306,-0.391 -1.41406,0 -0.391,0.391 -0.391,1.023062 0,1.414062 l 4,4 C 70.9117,76.902031 71.16773,77 71.42373,77 c 0.256,0 0.51203,-0.09797 0.70703,-0.292969 l 8,-8 c 0.391,-0.391 0.391,-1.023062 0,-1.414062 C 79.93526,67.097469 79.67948,67 79.42373,67 z m -38,2 c -0.552,0 -1,0.448 -1,1 l 0,2 c 0,0.552 0.448,1 1,1 0.552,0 1,-0.448 1,-1 l 0,-2 c 0,-0.552 -0.448,-1 -1,-1 z m 5,0 c -0.552,0 -1,0.448 -1,1 l 0,2 c 0,0.552 0.448,1 1,1 0.552,0 1,-0.448 1,-1 l 0,-2 c 0,-0.552 -0.448,-1 -1,-1 z m 5,0 c -0.552,0 -1,0.448 -1,1 l 0,2 c 0,0.552 0.448,1 1,1 0.552,0 1,-0.448 1,-1 l 0,-2 c 0,-0.552 -0.448,-1 -1,-1 z m 5,0 c -0.552,0 -1,0.448 -1,1 l 0,2 c 0,0.552 0.448,1 1,1 0.552,0 1,-0.448 1,-1 l 0,-2 c 0,-0.552 -0.448,-1 -1,-1 z"
     id="path3062" />
</svg>
