<?xml version="1.0" encoding="UTF-8"?>
<svg width="66px" height="49px" viewBox="0 0 66 49" version="1.1" xmlns="http://www.w3.org/2000/svg" xmlns:xlink="http://www.w3.org/1999/xlink">
    <!-- Generator: Sketch 55.1 (78136) - https://sketchapp.com -->
    <title>Icon / E-reader / Vertical-Orientation / Horizontal / Not-Selected</title>
    <desc>Created with Sketch.</desc>
    <g id="Icon-/-E-reader-/-Vertical-Orientation-/-Horizontal-/-Not-Selected" stroke="none" stroke-width="1" fill="none" fill-rule="evenodd">
        <g id="167ppi_Vertical-Orientation_Horizontal_Not-Selected" transform="translate(-0.500000, -0.500000)" stroke="#000000">
            <rect id="Rectangle" fill="#FFFFFF" transform="translate(33.500000, 25.000000) rotate(-90.000000) translate(-33.500000, -25.000000) " x="9.5" y="-7.5" width="48" height="65" rx="6"></rect>
            <path d="M4,25 L34,25" id="Line" stroke-linecap="square" transform="translate(19.000000, 25.000000) rotate(-90.000000) translate(-19.000000, -25.000000) "></path>
            <path d="M-3,25 L27,25" id="Line" stroke-linecap="square" transform="translate(12.000000, 25.000000) rotate(-90.000000) translate(-12.000000, -25.000000) "></path>
            <path d="M39,25 L69,25" id="Line" stroke-linecap="square" transform="translate(54.000000, 25.000000) rotate(-90.000000) translate(-54.000000, -25.000000) "></path>
            <path d="M11,25 L41,25" id="Line" stroke-linecap="square" transform="translate(26.000000, 25.000000) rotate(-90.000000) translate(-26.000000, -25.000000) "></path>
            <path d="M18,25 L48,25" id="Line" stroke-linecap="square" transform="translate(33.000000, 25.000000) rotate(-90.000000) translate(-33.000000, -25.000000) "></path>
            <path d="M25,25 L55,25" id="Line" stroke-linecap="square" transform="translate(40.000000, 25.000000) rotate(-90.000000) translate(-40.000000, -25.000000) "></path>
            <path d="M32,25 L62,25" id="Line" stroke-linecap="square" transform="translate(47.000000, 25.000000) rotate(-90.000000) translate(-47.000000, -25.000000) "></path>
        </g>
    </g>
</svg>